<?xml version="1.0" encoding="UTF-8"?>
<svg id="Layer_1" data-name="Layer 1" xmlns="http://www.w3.org/2000/svg" viewBox="0 0 357.46 96.77">
  <defs>
    <style>
      .cls-1 {
        fill: #fff;
      }

      .cls-2 {
        fill: #00d083;
      }
    </style>
  </defs>
  <path class="cls-1" d="M91.71,80.17h-13.59l-5.59-7.53c-14.78,8.16-36.63,3.82-39.71-14.89-3.67-22.3,13.85-40.64,36.14-39.33,20.27,1.2,29.01,20.61,20.35,37.97-1.92,3.85-4.69,6.66-7.44,9.89l9.82,13.89h.02ZM59.63,53.71h12.93c.44,0,2.33,3.59,2.62,3.59,2.54-3,4.42-7.01,4.74-10.94,1.62-19.83-21.97-22.01-31.3-7.71-9.33,14.3.19,31.93,18.21,25.51,0,0-7.2-10.45-7.2-10.45Z"/>
  <polygon class="cls-1" points="108.4 34.11 108.73 60.57 122.15 34.11 133.28 34.11 133.94 59.92 147.2 34.11 156.2 34.11 136.72 74.94 124.77 74.94 124.11 49.14 111.19 74.94 98.25 74.94 96.95 34.11 108.4 34.11"/>
  <polygon class="cls-1" points="232.47 19.42 225.27 50.12 226.26 49.63 242.13 34.11 255.39 34.11 235.46 53.61 248.52 74.94 235.91 74.94 224.13 55.34 219.71 74.94 208.25 74.94 220.69 19.42 232.47 19.42"/>
  <polygon class="cls-1" points="192.21 19.42 185.34 50.29 199.42 36.57 201.37 34.11 212.83 34.11 195.52 53.61 206.61 74.94 194.66 74.94 184.03 55.34 179.77 74.94 168.31 74.94 180.91 19.42 192.21 19.42"/>
  <path class="cls-1" d="M289.76,58.28h-29.79c-.81,8.82,9.16,11.08,15.49,7.13.66-.41,2.8-2.56,3-2.56h9.98c-2.64,7-10.37,12.45-17.83,13.08-32.27,2.72-24.56-40.69.98-42.79,7.44-.61,16.17,1.62,18.66,9.46,1.71,5.4.44,10.32-.49,15.68h0ZM280.92,50.12c.87-12.48-17.35-10.15-18.99,0h18.99Z"/>
  <path class="cls-1" d="M327.74,33.79l-2.31,11.09c-9.33-.69-15.05,1.66-17.7,10.92-1.76,6.13-2.66,12.92-4.21,19.15h-12.11l9.49-40.83h11.79c0,.58-1.77,5.84-1.15,5.88,1.53-2.35,4.01-4.15,6.63-5.15.65-.25,3.04-1.06,3.52-1.06h6.06-.01Z"/>
  <polygon class="cls-1" points="170.27 34.11 161.44 74.94 151.29 74.94 160.94 34.11 170.27 34.11"/>
  <polygon class="cls-2" points="173.22 19.74 170.93 29.22 158.49 29.22 160.45 19.74 173.22 19.74"/>
</svg>