<?xml version="1.0" encoding="UTF-8"?>
<svg xmlns="http://www.w3.org/2000/svg" viewBox="0 0 96 96">
  <defs>
    <style>
      .cls-1 {
        fill: #fff;
      }
      .cls-2 {
        fill: #00d083;
      }
    </style>
  </defs>
  <!-- Simplified Q icon from the main logo -->
  <circle cx="48" cy="48" r="44" fill="#00d083"/>
  <path class="cls-1" d="M65.71,70.17h-13.59l-5.59-7.53c-14.78,8.16-36.63,3.82-39.71-14.89-3.67-22.3,13.85-40.64,36.14-39.33,20.27,1.2,29.01,20.61,20.35,37.97-1.92,3.85-4.69,6.66-7.44,9.89l9.82,13.89h.02ZM33.63,43.71h12.93c.44,0,2.33,3.59,2.62,3.59,2.54-3,4.42-7.01,4.74-10.94,1.62-19.83-21.97-22.01-31.3-7.71-9.33,14.3.19,31.93,18.21,25.51,0,0-7.2-10.45-7.2-10.45Z"/>
</svg>
