<svg viewBox="0 0 60 25" xmlns="http://www.w3.org/2000/svg" width="60" height="25" class="UserLogo variant-- ">
  <title>Stripe logo</title>
  <path fill="currentColor" d="M59.64 14.28h-8.06c.19 1.93 1.6 2.55 3.2 2.55 1.64 0 2.96-.37 4.05-.95v3.32a8.33 8.33 0 0 1-4.56 1.1c-4.01 0-6.83-2.5-6.83-7.48 0-4.19 2.39-7.52 6.3-7.52 3.92 0 5.96 3.28 5.96 7.5 0 .4-.04 1.26-.06 1.48zm-5.92-5.62c-1.03 0-2.17.73-2.17 2.58h4.25c0-1.85-1.07-2.58-2.08-2.58zM40.95 20.3c-1.44 0-2.32-.6-2.9-1.04l-.02 4.63-4.12.87V5.57h3.76l.08 1.02a4.7 4.7 0 0 1 3.23-1.29c2.9 0 5.62 2.6 5.62 7.4 0 5.23-2.7 7.6-5.65 7.6zM40 8.95c-.95 0-1.54.34-1.97.81l.02 6.12c.4.44.98.78 1.95.78 1.52 0 2.54-1.65 2.54-3.87 0-2.15-1.04-3.84-2.54-3.84zM28.24 5.57h4.13v14.44h-4.13V5.57zm0-5.13L32.37 0v3.77l-4.13.88V.44zm-4.32 9.35v10.22H19.8V5.57h3.7l.12 1.22c1-1.77 3.07-1.41 3.62-1.22v3.79c-.52-.17-2.29-.43-3.32.43zm-8.55 4.72c0 2.43 2.6 1.68 3.12 1.46v3.36c-.55.3-1.54.54-2.89.54a4.15 4.15 0 0 1-4.27-4.24l.01-13.17 4.02-.86v3.54h3.14V9.1h-3.13v5.41zm-4.91.7c0 3.05-2.84 4.74-6.03 4.74-2.47 0-5.15-.85-6.67-2.21l1.95-2.99c1.14 1.03 3.04 1.75 4.52 1.75 1.03 0 1.96-.29 1.96-1.08 0-1.57-5.78-.98-5.78-5.54 0-2.76 2.27-4.62 5.57-4.62 2.18 0 4.26.55 5.73 1.83L9.72 9.94c-.87-.74-2.5-1.22-3.72-1.22-1.27 0-1.8.47-1.8 1.06 0 1.45 5.77.85 5.77 5.42z"></path>
</svg>
