<svg viewBox="0 0 60 25" xmlns="http://www.w3.org/2000/svg" width="60" height="25" fill="#635BFF">
  <path d="M59.64 14.28h-8.06c.19 1.93 1.6 2.55 3.2 2.55 1.64 0 2.96-.37 4.05-.95v3.32a8.33 8.33 0 0 1-4.56 1.1c-4.01 0-6.83-2.5-6.83-7.48 0-4.19 2.39-7.52 6.3-7.52 3.92 0 5.96 3.28 5.96 7.5 0 .4-.02 1.04-.06 1.48zm-3.67-3.17c0-1.3-.85-2.18-1.96-2.18-1.09 0-2.08.88-2.27 2.18h4.23zm-13.59 7.14c-1.1.45-2.49.75-4.14.75-4.64 0-6.92-2.44-6.92-6.45 0-3.5 2.04-7.25 6.45-7.25 1.45 0 2.7.27 3.47.63v4.03c-.73-.47-1.57-.73-2.54-.73-2.24 0-3.21 1.79-3.21 3.57 0 2.2 1.27 3.4 3.34 3.4.95 0 1.91-.27 2.6-.65l.95 2.7zm-13.96.25h-4.2V5.55h4.2v12.95zm-2.1-14.85c-1.36 0-2.46-1.1-2.46-2.46 0-1.36 1.1-2.46 2.46-2.46 1.36 0 2.46 1.1 2.46 2.46 0 1.36-1.1 2.46-2.46 2.46zM15.7 5.3c-1.36 0-2.41.38-3.37.97V5.55H8.13v12.95h4.2v-7.11c0-1.74.78-2.31 1.76-2.31.73 0 1.29.22 1.83.63l1.02-3.82c-.43-.27-1.06-.59-2.24-.59zm-7.95.25v12.95H3.55V13.1c-.7.95-1.67 1.5-2.94 1.5-2.41 0-3.74-1.91-3.74-4.66 0-2.91 1.5-4.64 3.87-4.64 1.29 0 2.27.55 2.81 1.5V5.55h4.2zM4.5 9.55c0-1.34-.55-2.28-1.62-2.28-.93 0-1.72.8-1.72 2.2 0 1.47.7 2.24 1.68 2.24 1.04 0 1.66-.83 1.66-2.16z"/>
</svg>

